<svg width="16" version="1.1" height="16"><defs><linearGradient id="gradient" x1="0" y1="100%" x2="0" y2="0%">
<stop offset="30%" style="stop-color:#33d17a;stop-opacity:1;"/>
<stop offset="30%" style="stop-opacity:0;" />
</linearGradient></defs><g transform="translate(-112,-27.999995)"><path id="power" class="success" d="M 116.99679,32.996851 117,38.999995 v 2 h 3 v -2 l 2.99988,-2.963541 v -3.039603 z" style="fill:url(#gradient)" /><path id="battery" d="m 117.46875,28.011719 c -0.49033,0 -0.79607,0.214784 -1.03125,0.455078 C 116.20232,28.707091 116,29.023351 116,29.496094 V 30 h -2 v 14 h 8 v -2 h -6 V 32 h 2 v -1.988281 h 4 V 32 h 2 v 3 h 2 v -5 h -2 v -0.394531 l -0.002,-0.02734 c -0.0239,-0.430603 -0.18,-0.734707 -0.41602,-1.013672 -0.23602,-0.278964 -0.6205,-0.584896 -1.19922,-0.552734 z" style="fill:#2e3436" /><path id="bolt" d="m 124.95703,36.001953 c -0.24996,0.01053 -0.4869,0.114365 -0.66406,0.291016 l -3,3 c -0.20046,0.200604 -0.2738,0.438579 -0.27368,0.680609 2.4e-4,0.47173 2.4e-4,0.84574 2.4e-4,1.028843 1.12957,-3.29e-4 1.96707,-0.0024 3.084,-0.0024 l -0.92005,1.429895 c -0.12754,0.188747 -0.183,0.381926 -0.18322,0.565376 -3.8e-4,0.31453 -3.8e-4,0.810935 -3.8e-4,1.002994 0.23858,0 0.7489,-3.73e-4 1.00992,0.003 0.23588,0.0031 0.48114,-0.08349 0.69715,-0.292131 l 2.99231,-2.994348 c 0.21545,-0.210863 0.30343,-0.473863 0.30229,-0.730206 -0.002,-0.347273 -0.003,-0.696805 -0.003,-0.985903 -1.04727,0.0039 -2.1549,0.0013 -3.12915,0.0013 l 0.96289,-1.445312 c 0.11761,-0.176977 0.16965,-0.369212 0.16904,-0.556209 -0.001,-0.333112 -0.001,-0.776867 -2e-4,-0.998572 -0.25182,8.8e-5 -0.68986,8.8e-5 -1.04384,0.002 z" style="fill:#2e3436" /></g></svg>
