<svg xmlns="http://www.w3.org/2000/svg" width="16" height="16">
<style>
@media (prefers-color-scheme: dark) {path {fill: #fff}}
@media (prefers-color-scheme: light) {path {fill: #000}}
</style>
<path d="M3.994 3c.554 0 1 .446 1 1s-.446 1-1 1-1-.446-1-1 .446-1 1-1zm4 0c.554 0 1 .446 1 1s-.446 1-1 1-1-.446-1-1 .446-1 1-1zm4 0c.554 0 1 .446 1 1s-.446 1-1 1-1-.446-1-1 .446-1 1-1zm-8 4c.554 0 1 .446 1 1s-.446 1-1 1-1-.446-1-1 .446-1 1-1zm4 0c.554 0 1 .446 1 1s-.446 1-1 1-1-.446-1-1 .446-1 1-1zm4 0c.554 0 1 .446 1 1s-.446 1-1 1-1-.446-1-1 .446-1 1-1zm-8 4c.554 0 1 .446 1 1s-.446 1-1 1-1-.446-1-1 .446-1 1-1zm4 0c.554 0 1 .446 1 1s-.446 1-1 1-1-.446-1-1 .446-1 1-1zm4 0c.554 0 1 .446 1 1s-.446 1-1 1-1-.446-1-1 .446-1 1-1z"/></svg>