<svg xmlns="http://www.w3.org/2000/svg">
	<symbol id="show-apps">
		<path d="M4 3a1 1 0 1 1 0 2 1 1 0 1 1 0-2zm4 0a1 1 0 1 1 0 2 1 1 0 1 1 0-2zm4 0a1 1 0 1 1 0 2 1 1 0 1 1 0-2zM4 7a1 1 0 1 1 0 2 1 1 0 1 1 0-2zm4 0a1 1 0 1 1 0 2 1 1 0 1 1 0-2zm4 0a1 1 0 1 1 0 2 1 1 0 1 1 0-2zm-8 4a1 1 0 1 1 0 2 1 1 0 1 1 0-2zm4 0a1 1 0 1 1 0 2 1 1 0 1 1 0-2zm4 0a1 1 0 1 1 0 2 1 1 0 1 1 0-2z"/>
	</symbol>
	<symbol id="night-light">
		<path d="M4.96.6s-.54 1.32-.17 2.23l.43 1.03c-.53.35-1 .8-1.35 1.33l-1.02-.42c-.91-.39-2.23.15-2.23.15s.55 1.31 1.46 1.7l1.02.42a4.96 4.96 0 0 0 0 1.9l-1.03.42C1.15 9.73.6 11.04.6 11.04s1.32.54 2.23.17l1.03-.42c.35.52.8.98 1.33 1.34l-.42 1.02c-.38.91.15 2.23.15 2.23s1.32-.54 1.7-1.46l.42-1.02a4.96 4.96 0 0 0 1.9 0l.42 1.03c.37.92 1.68 1.47 1.68 1.47s.54-1.32.17-2.23l-.42-1.02c.52-.36.98-.82 1.34-1.34l1.02.42c.91.39 2.23-.15 2.23-.15s-.55-1.31-1.46-1.7l-1.02-.42a4.96 4.96 0 0 0 0-1.9l1.03-.42c.92-.37 1.47-1.68 1.47-1.68s-1.32-.54-2.23-.17l-1.02.42a5.06 5.06 0 0 0-1.34-1.34l.42-1.02c.39-.91-.15-2.23-.15-2.23s-1.31.55-1.7 1.46L8.97 3.1a4.96 4.96 0 0 0-1.9 0l-.42-1.03C6.27 1.15 4.96.6 4.96.6zM8 5c.19 0 .37.02.54.05A2 2 0 0 0 7 7a2 2 0 0 0 2 2 2 2 0 0 0 1.95-1.55 3.04 3.04 0 0 1 0 1.12 3 3 0 0 1-.03.1c-.03.15-.08.3-.13.44a3 3 0 0 1-.06.13l-.19.35a3 3 0 0 1-.1.16l-.25.3a3 3 0 0 1-.1.1 3 3 0 0 1-.03.03l-.29.24a3 3 0 0 1-.15.1c-.12.08-.24.15-.38.2a3 3 0 0 1-.11.06 3 3 0 0 1-.47.14 3 3 0 0 1-.09.02 3.06 3.06 0 0 1-1.14 0 3 3 0 0 1-.1-.02 3 3 0 0 1-.44-.13 3 3 0 0 1-.13-.06 2.97 2.97 0 0 1-.35-.19 3 3 0 0 1-.16-.1l-.3-.25a3 3 0 0 1-.1-.1 3 3 0 0 1-.03-.03l-.24-.29a3 3 0 0 1-.1-.15 2.97 2.97 0 0 1-.2-.38 3 3 0 0 1-.06-.11 3 3 0 0 1-.14-.47 3 3 0 0 1-.02-.09 3.06 3.06 0 0 1 0-1.14 3 3 0 0 1 .02-.1c.03-.15.08-.3.14-.44a3 3 0 0 1 .05-.13l.19-.35a3 3 0 0 1 .1-.16l.25-.3a3 3 0 0 1 .1-.1 3 3 0 0 1 .03-.03l.3-.24a3 3 0 0 1 .14-.1c.12-.08.25-.15.38-.2a3 3 0 0 1 .12-.06 3 3 0 0 1 .46-.14 3 3 0 0 1 .09-.02C7.6 5.02 7.8 5 8 5Z"/>
	</symbol>
	<symbol id="network-wireless-signal-excellent">
		<path d="M10 13a2 2 0 0 1-2 2 2 2 0 0 1-2-2 2 2 0 0 1 2-2 2 2 0 0 1 2 2zM8 2C5.19 2 2.83 3 1 4.59V6h1.48A8.16 8.16 0 0 1 8 4c2.3 0 4 .78 5.52 2H15V4.62A10.73 10.73 0 0 0 8 2z"/>
		<path d="M8 5c-2.17 0-4.02.74-5 2v1h2c.79-.6 1.76-1 3-1s2.22.4 3 1h2V7c-1-1.22-2.87-2-5-2z"/>
		<path d="M8 8a4.3 4.3 0 0 0-3 1v1h6V9c-.84-.67-1.74-1-3-1z"/>
	</symbol>
	<symbol id="network-vpn">
		<path d="M7 10v3h2v-3zm-5 3v2h12v-2z"/>
		<path d="M4 5h8v6H4z"/>
		<path d="M8 1s-.7-.01-1.45.35A2.97 2.97 0 0 0 5 4v3h2V4c0-.67.19-.72.45-.85C7.7 3 8 3 8 3s.3.01.55.14c.26.13.45.2.45.86v3h2V4c0-1.33-.81-2.27-1.55-2.65C8.7 1 8 1 8 1z"/>
	</symbol>
	<symbol id="microphone-sensitivity-high">
		<path d="M7 13v3h2v-3zM8 0a3 3 0 0 1 3 3v5a3 3 0 1 1-6 0V3a3 3 0 0 1 3-3z"/>
		<path d="M2 6v2.01a6 6 0 0 0 12 0V6h-1.5v2.01c0 2.5-2 4.49-4.5 4.49s-4.5-1.99-4.5-4.49V6Z"/>
	</symbol>
	<symbol id="battery-charging">
		<path d="M5 5v8h3v-2l3-2.96V5Z"/>
		<path d="M5.47.01c-.5 0-.8.22-1.03.46A1.4 1.4 0 0 0 4 1.5V2H2v14h8v-2H4V4h2V2.01h4V4h2v3h2V2h-2v-.42a1.62 1.62 0 0 0-.42-1.02 1.43 1.43 0 0 0-1.2-.55Z"/>
		<path d="M12.96 8a1 1 0 0 0-.67.3l-3 3a.9.9 0 0 0-.27.67V13h3.08l-.92 1.43A1 1 0 0 0 11 15v1h1.01c.24 0 .48-.08.7-.3l2.99-2.99a1 1 0 0 0 .3-.73V11h-3.13l.96-1.45A1 1 0 0 0 14 9V8h-1.04z"/>
	</symbol>
	<symbol id="search">
		<path d="M6.6.06a6.51 6.51 0 1 0 3.83 11.74l2.98 2.97c.95.94 2.36-.5 1.4-1.43l-2.95-2.96A6.48 6.48 0 0 0 6.6.06zm0 2c2.5 0 4.5 2 4.5 4.5s-2 4.5-4.5 4.5-4.5-2-4.5-4.5 2-4.5 4.5-4.5zm0 0"/>
	</symbol>
	<symbol id="wired">
    <path d="m 6 0 c -0.554688 0 -1 0.445312 -1 1 v 3 c 0 0.554688 0.445312 1 1 1 h 1 v 2 h -7 v 2 h 2 v 2 h -1 c -0.554688 0 -1 0.445312 -1 1 v 3 c 0 0.554688 0.445312 1 1 1 h 4 c 0.554688 0 1 -0.445312 1 -1 v -3 c 0 -0.554688 -0.445312 -1 -1 -1 h -1 v -2 h 8 v 2 h -1 c -0.554688 0 -1 0.445312 -1 1 v 3 c 0 0.554688 0.445312 1 1 1 h 4 c 0.554688 0 1 -0.445312 1 -1 v -3 c 0 -0.554688 -0.445312 -1 -1 -1 h -1 v -2 h 2 v -2 h -7 v -2 h 1 c 0.554688 0 1 -0.445312 1 -1 v -3 c 0 -0.554688 -0.445312 -1 -1 -1 z m 0 0"/>
	</symbol>
	<symbol id="wi-fi">
    <path d="m 8 1.992188 c -2.617188 0 -5.238281 0.933593 -7.195312 2.808593 l -0.496094 0.480469 c -0.3984378 0.378906 -0.410156 1.011719 -0.03125 1.410156 c 0.382812 0.398438 1.015625 0.410156 1.414062 0.03125 l 0.5 -0.476562 c 3.085938 -2.957032 8.53125 -2.957032 11.617188 0 l 0.5 0.476562 c 0.398437 0.378906 1.03125 0.367188 1.414062 -0.03125 c 0.378906 -0.398437 0.367188 -1.03125 -0.03125 -1.410156 l -0.496094 -0.484375 c -1.957031 -1.871094 -4.578124 -2.804687 -7.195312 -2.804687 z m -0.03125 4.007812 c -1.570312 0.011719 -3.128906 0.628906 -4.207031 1.8125 l -0.5 0.550781 c -0.179688 0.195313 -0.277344 0.453125 -0.261719 0.71875 c 0.011719 0.265625 0.128906 0.515625 0.328125 0.695313 c 0.195313 0.179687 0.453125 0.273437 0.71875 0.257812 c 0.265625 -0.011718 0.515625 -0.128906 0.695313 -0.328125 l 0.496093 -0.546875 c 1.277344 -1.402344 4.160157 -1.496094 5.523438 0.003906 l 0.5 0.542969 c 0.175781 0.199219 0.425781 0.316407 0.691406 0.328125 c 0.265625 0.015625 0.523437 -0.078125 0.722656 -0.257812 c 0.195313 -0.179688 0.3125 -0.429688 0.324219 -0.695313 c 0.011719 -0.261719 -0.082031 -0.523437 -0.261719 -0.71875 l -0.5 -0.546875 c -1.121093 -1.234375 -2.703125 -1.828125 -4.269531 -1.816406 z m 0.03125 4 c -0.511719 0 -1.023438 0.195312 -1.414062 0.585938 c -0.78125 0.78125 -0.78125 2.046874 0 2.828124 s 2.046874 0.78125 2.828124 0 s 0.78125 -2.046874 0 -2.828124 c -0.390624 -0.390626 -0.902343 -0.585938 -1.414062 -0.585938 z m 0 0"/>
	</symbol>
	<symbol id="bluetooth">
    <path d="m 7.585938 0.0898438 c -0.355469 0.1640622 -0.585938 0.5195312 -0.585938 0.9101562 v 5.296875 l -2.34375 -2.046875 c -0.414062 -0.363281 -1.042969 -0.324219 -1.40625 0.089844 c -0.363281 0.417968 -0.324219 1.046875 0.09375 1.410156 l 2.566406 2.25 l -2.566406 2.25 c -0.417969 0.363281 -0.457031 0.992188 -0.09375 1.40625 c 0.363281 0.417969 0.992188 0.457031 1.40625 0.09375 l 2.34375 -2.046875 v 5.296875 c 0 0.390625 0.230469 0.746094 0.585938 0.910156 c 0.359374 0.160156 0.777343 0.101563 1.070312 -0.160156 l 4 -3.5 c 0.21875 -0.1875 0.34375 -0.460938 0.34375 -0.75 s -0.125 -0.5625 -0.34375 -0.75 l -3.140625 -2.75 l 3.140625 -2.75 c 0.21875 -0.1875 0.34375 -0.460938 0.34375 -0.75 s -0.125 -0.5625 -0.34375 -0.75 l -4 -3.5 c -0.292969 -0.2617188 -0.710938 -0.3242188 -1.070312 -0.1601562 z m 1.414062 3.1132812 l 1.484375 1.296875 l -1.484375 1.296875 z m 0 7 l 1.484375 1.296875 l -1.484375 1.296875 z m 0 0"/>
	</symbol>
	<symbol id="upload-image">
    <path d="m14.3 8.7-7-7h1.4l-7 7A1 1 0 1 1 .3 7.3l7-7a1 1 0 0 1 1.4 0l7 7a1 1 0 1 1-1.4 1.4zm0 0"/>
    <path d="M9 1v14a1 1 0 0 1-2 0V1a1 1 0 0 1 2 0zm0 0"/>
	</symbol>
	<symbol id="dark-style">
    <path d="M8 0C3.6 0 0 3.6 0 8s3.6 8 8 8 8-3.6 8-8-3.6-8-8-8zm0 1.94c3.36 0 6.06 2.7 6.06 6.06s-2.7 6.06-6.06 6.06zm0 0"/>
	</symbol>
	<symbol id="power-saver">
    <path d="m 8 1.003906 c 2.050781 0 4.097656 0.78125 5.65625 2.339844 c 3.117188 3.117188 3.117188 8.195312 0 11.3125 c -0.390625 0.390625 -1.023438 0.390625 -1.414062 0 c -0.390626 -0.390625 -0.390626 -1.023438 0 -1.414062 c 2.351562 -2.351563 2.351562 -6.132813 0 -8.484376 c -2.351563 -2.351562 -6.132813 -2.351562 -8.484376 0 c -2.351562 2.351563 -2.351562 6.132813 0 8.484376 c 0.390626 0.390624 0.390626 1.023437 0 1.414062 c -0.390624 0.390625 -1.023437 0.390625 -1.414062 0 c -3.117188 -3.117188 -3.117188 -8.195312 0 -11.3125 c 1.558594 -1.558594 3.605469 -2.339844 5.65625 -2.339844 z m 1 2.996094 v 3.273438 c 0.617188 0.355468 0.996094 1.015624 1 1.726562 c 0 1.105469 -0.894531 2 -2 2 s -2 -0.894531 -2 -2 c 0 -0.714844 0.382812 -1.375 1 -1.730469 v -3.269531 l 1 -1 z m 0 0" />
    <path d="m 4 9 c 0.003906 1.058594 0.429688 2.074219 1.179688 2.820312 l -2.128907 2.128907 c -1.3125 -1.3125 -2.050781 -3.09375 -2.050781 -4.949219 z m 0 0"  fill-opacity="0.34902"/>
	</symbol>
</svg>
