<svg xmlns="http://www.w3.org/2000/svg">
  <symbol id="show-apps">
    <path d="M4 3a1 1 0 1 1 0 2 1 1 0 1 1 0-2zm4 0a1 1 0 1 1 0 2 1 1 0 1 1 0-2zm4 0a1 1 0 1 1 0 2 1 1 0 1 1 0-2zM4 7a1 1 0 1 1 0 2 1 1 0 1 1 0-2zm4 0a1 1 0 1 1 0 2 1 1 0 1 1 0-2zm4 0a1 1 0 1 1 0 2 1 1 0 1 1 0-2zm-8 4a1 1 0 1 1 0 2 1 1 0 1 1 0-2zm4 0a1 1 0 1 1 0 2 1 1 0 1 1 0-2zm4 0a1 1 0 1 1 0 2 1 1 0 1 1 0-2z"/>
  </symbol>
  <symbol id="night-light">
    <path d="M4.96.6s-.54 1.32-.17 2.23l.43 1.03c-.53.35-1 .8-1.35 1.33l-1.02-.42c-.91-.39-2.23.15-2.23.15s.55 1.31 1.46 1.7l1.02.42a4.96 4.96 0 0 0 0 1.9l-1.03.42C1.15 9.73.6 11.04.6 11.04s1.32.54 2.23.17l1.03-.42c.35.52.8.98 1.33 1.34l-.42 1.02c-.38.91.15 2.23.15 2.23s1.32-.54 1.7-1.46l.42-1.02a4.96 4.96 0 0 0 1.9 0l.42 1.03c.37.92 1.68 1.47 1.68 1.47s.54-1.32.17-2.23l-.42-1.02c.52-.36.98-.82 1.34-1.34l1.02.42c.91.39 2.23-.15 2.23-.15s-.55-1.31-1.46-1.7l-1.02-.42a4.96 4.96 0 0 0 0-1.9l1.03-.42c.92-.37 1.47-1.68 1.47-1.68s-1.32-.54-2.23-.17l-1.02.42a5.06 5.06 0 0 0-1.34-1.34l.42-1.02c.39-.91-.15-2.23-.15-2.23s-1.31.55-1.7 1.46L8.97 3.1a4.96 4.96 0 0 0-1.9 0l-.42-1.03C6.27 1.15 4.96.6 4.96.6zM8 5c.19 0 .37.02.54.05A2 2 0 0 0 7 7a2 2 0 0 0 2 2 2 2 0 0 0 1.95-1.55 3.04 3.04 0 0 1 0 1.12 3 3 0 0 1-.03.1c-.03.15-.08.3-.13.44a3 3 0 0 1-.06.13l-.19.35a3 3 0 0 1-.1.16l-.25.3a3 3 0 0 1-.1.1 3 3 0 0 1-.03.03l-.29.24a3 3 0 0 1-.15.1c-.12.08-.24.15-.38.2a3 3 0 0 1-.11.06 3 3 0 0 1-.47.14 3 3 0 0 1-.09.02 3.06 3.06 0 0 1-1.14 0 3 3 0 0 1-.1-.02 3 3 0 0 1-.44-.13 3 3 0 0 1-.13-.06 2.97 2.97 0 0 1-.35-.19 3 3 0 0 1-.16-.1l-.3-.25a3 3 0 0 1-.1-.1 3 3 0 0 1-.03-.03l-.24-.29a3 3 0 0 1-.1-.15 2.97 2.97 0 0 1-.2-.38 3 3 0 0 1-.06-.11 3 3 0 0 1-.14-.47 3 3 0 0 1-.02-.09 3.06 3.06 0 0 1 0-1.14 3 3 0 0 1 .02-.1c.03-.15.08-.3.14-.44a3 3 0 0 1 .05-.13l.19-.35a3 3 0 0 1 .1-.16l.25-.3a3 3 0 0 1 .1-.1 3 3 0 0 1 .03-.03l.3-.24a3 3 0 0 1 .14-.1c.12-.08.25-.15.38-.2a3 3 0 0 1 .12-.06 3 3 0 0 1 .46-.14 3 3 0 0 1 .09-.02C7.6 5.02 7.8 5 8 5Z"/>
  </symbol>
  <symbol id="network-wireless-signal-excellent">
    <path d="M10 13a2 2 0 0 1-2 2 2 2 0 0 1-2-2 2 2 0 0 1 2-2 2 2 0 0 1 2 2zM8 2C5.19 2 2.83 3 1 4.59V6h1.48A8.16 8.16 0 0 1 8 4c2.3 0 4 .78 5.52 2H15V4.62A10.73 10.73 0 0 0 8 2z"/>
    <path d="M8 5c-2.17 0-4.02.74-5 2v1h2c.79-.6 1.76-1 3-1s2.22.4 3 1h2V7c-1-1.22-2.87-2-5-2z"/>
    <path d="M8 8a4.3 4.3 0 0 0-3 1v1h6V9c-.84-.67-1.74-1-3-1z"/>
  </symbol>
  <symbol id="network-vpn">
    <path d="M7 10v3h2v-3zm-5 3v2h12v-2z"/>
    <path d="M4 5h8v6H4z"/>
    <path d="M8 1s-.7-.01-1.45.35A2.97 2.97 0 0 0 5 4v3h2V4c0-.67.19-.72.45-.85C7.7 3 8 3 8 3s.3.01.55.14c.26.13.45.2.45.86v3h2V4c0-1.33-.81-2.27-1.55-2.65C8.7 1 8 1 8 1z"/>
  </symbol>
  <symbol id="microphone-sensitivity-high">
    <path d="M7 13v3h2v-3zM8 0a3 3 0 0 1 3 3v5a3 3 0 1 1-6 0V3a3 3 0 0 1 3-3z"/>
    <path d="M2 6v2.01a6 6 0 0 0 12 0V6h-1.5v2.01c0 2.5-2 4.49-4.5 4.49s-4.5-1.99-4.5-4.49V6Z"/>
  </symbol>
  <symbol id="battery-charging">
    <path d="M5 5v8h3v-2l3-2.96V5Z"/>
    <path d="M5.47.01c-.5 0-.8.22-1.03.46A1.4 1.4 0 0 0 4 1.5V2H2v14h8v-2H4V4h2V2.01h4V4h2v3h2V2h-2v-.42a1.62 1.62 0 0 0-.42-1.02 1.43 1.43 0 0 0-1.2-.55Z"/>
    <path d="M12.96 8a1 1 0 0 0-.67.3l-3 3a.9.9 0 0 0-.27.67V13h3.08l-.92 1.43A1 1 0 0 0 11 15v1h1.01c.24 0 .48-.08.7-.3l2.99-2.99a1 1 0 0 0 .3-.73V11h-3.13l.96-1.45A1 1 0 0 0 14 9V8h-1.04z"/>
  </symbol>
</svg>
