<svg xmlns="http://www.w3.org/2000/svg">
	<symbol id="pause">
		<path id="p" d="M2 1h5v14H2zm0 0"/>
		<use id="#p" x="7"/>
	</symbol>
	<symbol id="start">
		<path d="M2 1v14h1.4c.24 0 .49-.06.7-.18l9.8-5.6c.43-.24.65-.73.65-1.22 0-.5-.22-.99-.66-1.23l-9.8-5.6A1.4 1.4 0 0 0 3.4 1zm0 0"/>
	</symbol>
	<symbol id="stop">
		<path d="M2 2h12v12H2zm0 0"/>
	</symbol>
	<symbol id="record">
		<path d="M15 8A7 7 0 1 1 1 8a7 7 0 0 1 14 0zm0 0"/>
	</symbol>
	<symbol id="backward">
		<path id="b" d="M7 4a.97.97 0 0 0-.52.14l-5 3c-.3.18-.48.5-.48.86s.18.68.48.86l5 3A1 1 0 0 0 7 12h1V4zm0 0"/>
		<use href="#b" x="7"/>
	</symbol>
	<symbol id="forward">
		<path id="f" d="M2 4a1 1 0 0 1 .52.14l5 3a1 1 0 0 1 0 1.72l-5 3c-.16.09-.34.14-.52.14H1V4zm0 0"/>
		<use href="#f" x="7"/>
	</symbol>
	<symbol id="skip-backward">
		<path d="M15 2v12h-1.2c-.21 0-.42-.05-.6-.15l-8.4-4.8c-.37-.2-.56-.63-.56-1.05s.19-.84.56-1.05l8.4-4.8c.18-.1.39-.15.6-.15zm0 0"/>
		<path id="s" d="M1 2h2v12H1zm0 0"/>
	</symbol>
	<symbol id="skip-foward">
		<path d="M1 2v12h1.2c.21 0 .42-.05.6-.15l8.4-4.8c.37-.2.56-.63.56-1.05s-.19-.84-.56-1.05l-8.4-4.8c-.18-.1-.39-.15-.6-.15zm0 0"/>
		<use href="#s" x="14"/>
	</symbol>
</svg>